<!-- Generated by IcoMoon.io -->
<svg version="1.1" xmlns="http://www.w3.org/2000/svg" width="32" height="32" viewBox="0 0 32 32">
<title>cart-icon</title>
<path d="M26.641 18.268l1.636-9c0.015-0.081 0.024-0.173 0.024-0.268 0-0.828-0.672-1.5-1.5-1.5h-21.384l-0.685-3.768c-0.131-0.705-0.742-1.232-1.475-1.232-0 0-0 0-0.001 0h-2.256c-0.276 0-0.5 0.224-0.5 0.5s0.224 0.5 0.5 0.5v0h2.256c0 0 0 0 0 0 0.244 0 0.448 0.176 0.491 0.407l0 0.003 3.338 18.358c0.049 0.266 0.163 0.5 0.324 0.693l-0.002-0.002c-0.852 0.539-1.41 1.477-1.41 2.544 0 1.657 1.343 3.001 3.001 3.001s3.001-1.343 3.001-3.001c0-0.771-0.291-1.474-0.769-2.006l0.002 0.003h10.533c-0.474 0.528-0.763 1.229-0.763 1.998 0 1.656 1.342 2.998 2.998 2.998s2.998-1.342 2.998-2.998c0-1.656-1.342-2.998-2.998-2.998-0.001 0-0.001 0-0.002 0h-15.438c-0 0-0 0-0 0-0.244 0-0.448-0.176-0.491-0.407l-0-0.003-0.471-2.589h17.566c0 0 0 0 0.001 0 0.733 0 1.344-0.527 1.474-1.222l0.001-0.009zM11 25.5c0 1.105-0.895 2-2 2s-2-0.895-2-2c0-1.105 0.895-2 2-2v0c1.104 0.001 1.999 0.896 2 2v0zM26 25.5c0 1.105-0.895 2-2 2s-2-0.895-2-2c0-1.105 0.895-2 2-2v0c1.104 0.001 1.999 0.896 2 2v0zM5.599 8.5h21.203c0 0 0 0 0 0 0.276 0 0.5 0.224 0.5 0.5 0 0.032-0.003 0.063-0.009 0.093l0-0.003-1.636 9c-0.044 0.235-0.247 0.411-0.492 0.411-0 0-0 0-0 0h-17.748z"></path>
</svg>
