<!-- Generated by IcoMoon.io -->
<svg version="1.1" xmlns="http://www.w3.org/2000/svg" width="32" height="32" viewBox="0 0 32 32">
<title>mail-icon</title>
<path d="M28.497 6.967c-0.001-0.020-0.003-0.039-0.006-0.057l0 0.003c-0.003-0.016-0.007-0.031-0.012-0.046-0.005-0.019-0.010-0.035-0.016-0.051l0.001 0.003c-0.008-0.019-0.015-0.034-0.023-0.048l0.001 0.003c-0.007-0.014-0.014-0.028-0.022-0.041-0.011-0.017-0.022-0.031-0.034-0.045l0.001 0.001c-0.007-0.009-0.012-0.018-0.020-0.026-0.002-0.003-0.005-0.004-0.008-0.007-0.013-0.013-0.027-0.025-0.041-0.037l-0.001-0.001c-0.011-0.009-0.021-0.019-0.033-0.027s-0.027-0.017-0.042-0.025l-0.003-0.001c-0.013-0.007-0.026-0.016-0.040-0.022-0.015-0.007-0.031-0.011-0.047-0.016s-0.030-0.011-0.046-0.014c-0.015-0.003-0.030-0.004-0.045-0.006s-0.034-0.004-0.052-0.005l-0.001-0c-0.004-0-0.007-0.001-0.011-0.001h-24c-0.004 0-0.007 0.001-0.011 0.001-0.021 0.001-0.040 0.003-0.058 0.006l0.003-0c-0.014 0.002-0.029 0.003-0.043 0.006-0.020 0.005-0.037 0.010-0.053 0.016l0.003-0.001c-0.014 0.005-0.029 0.009-0.043 0.015-0.015 0.007-0.029 0.015-0.043 0.023s-0.028 0.015-0.042 0.024c-0.012 0.008-0.023 0.019-0.034 0.028-0.015 0.012-0.028 0.024-0.041 0.036l0-0c-0.002 0.003-0.005 0.004-0.008 0.007-0.008 0.008-0.013 0.018-0.020 0.026-0.011 0.013-0.022 0.027-0.032 0.042l-0.001 0.002c-0.008 0.013-0.015 0.027-0.022 0.041-0.008 0.015-0.015 0.030-0.021 0.045s-0.010 0.031-0.015 0.047c-0.004 0.015-0.009 0.030-0.012 0.046s-0.005 0.034-0.005 0.053l-0 0.001c-0.001 0.011-0.003 0.022-0.003 0.033v17c0.001 0.828 0.672 1.499 1.5 1.5h22c0.828-0.001 1.499-0.672 1.5-1.5v-17c0-0.011-0.003-0.022-0.003-0.033zM26.715 7.5l-10.715 9.822-10.715-9.822zM27 24.5h-22c-0.276-0-0.5-0.224-0.5-0.5v-15.863l11.162 10.232c0.089 0.081 0.207 0.131 0.338 0.131s0.249-0.050 0.338-0.132l-0 0 11.162-10.232v15.863c-0 0.276-0.224 0.5-0.5 0.5h-0z"></path>
</svg>
