<!-- Generated by IcoMoon.io -->
<svg version="1.1" xmlns="http://www.w3.org/2000/svg" width="32" height="32" viewBox="0 0 32 32">
<title>menu-icon</title>
<path d="M6.813 13.559c-1.383 0-2.504 1.121-2.504 2.504s1.121 2.504 2.504 2.504c1.383 0 2.504-1.121 2.504-2.504v0c-0.001-1.382-1.122-2.502-2.504-2.504h-0zM6.813 17.149c-0.6 0-1.086-0.486-1.086-1.086s0.486-1.086 1.086-1.086c0.6 0 1.086 0.486 1.086 1.086v0c-0.001 0.6-0.487 1.086-1.086 1.086h-0z"></path>
<path d="M6.813 5.407c-1.383 0-2.504 1.121-2.504 2.504s1.121 2.504 2.504 2.504c1.383 0 2.504-1.121 2.504-2.504v0c-0.001-1.382-1.122-2.502-2.504-2.504h-0zM6.813 9c-0.6 0-1.086-0.486-1.086-1.086s0.486-1.086 1.086-1.086c0.6 0 1.086 0.486 1.086 1.086v0c-0.001 0.6-0.487 1.086-1.086 1.086h-0z"></path>
<path d="M6.813 21.68c-1.383 0-2.504 1.121-2.504 2.504s1.121 2.504 2.504 2.504c1.383 0 2.504-1.121 2.504-2.504v0c-0.001-1.382-1.122-2.502-2.504-2.504h-0zM6.813 25.27c-0.6 0-1.086-0.486-1.086-1.086s0.486-1.086 1.086-1.086c0.6 0 1.086 0.486 1.086 1.086v0c-0.001 0.6-0.487 1.086-1.086 1.086h-0z"></path>
<path d="M25.926 5.407h-13.417c-0 0-0 0-0.001 0-1.005 0-1.82 0.814-1.821 1.819v1.368c0.001 1.005 0.815 1.819 1.819 1.82h13.42c1.005-0.001 1.819-0.815 1.82-1.82v-1.368c-0.001-1.004-0.816-1.818-1.82-1.819h-0zM26.329 8.595c-0 0.222-0.18 0.402-0.402 0.402h-13.417c-0.222-0-0.402-0.18-0.402-0.402v-1.368c0-0.222 0.18-0.402 0.402-0.402 0 0 0 0 0 0h13.417c0 0 0 0 0 0 0.222 0 0.402 0.18 0.402 0.402v0z"></path>
<path d="M25.926 13.559h-13.417c-0 0-0 0-0.001 0-1.005 0-1.82 0.814-1.821 1.819v1.372c0.001 1.004 0.815 1.818 1.819 1.819h13.419c1.005-0.001 1.819-0.815 1.82-1.819v-1.369c0-0 0-0 0-0.001 0-1.006-0.815-1.821-1.82-1.822h-0zM26.329 16.746c-0.001 0.222-0.181 0.402-0.402 0.402h-13.417c-0.222-0-0.402-0.18-0.402-0.402v-1.369c0.001-0.222 0.181-0.402 0.402-0.402h13.417c0.222 0 0.402 0.18 0.402 0.402v0z"></path>
<path d="M25.926 21.68h-13.417c-0 0-0 0-0.001 0-1.005 0-1.821 0.815-1.821 1.82v1.368c0.001 1.005 0.817 1.819 1.822 1.819h13.417c1.005-0.001 1.819-0.815 1.82-1.82v-1.368c-0.001-1.005-0.815-1.819-1.82-1.82h-0zM26.329 24.867c-0 0.222-0.18 0.402-0.402 0.402h-13.417c-0.222-0-0.402-0.18-0.402-0.402v-1.368c0-0.222 0.18-0.402 0.402-0.402 0 0 0 0 0 0h13.417c0 0 0 0 0 0 0.222 0 0.402 0.18 0.402 0.402v0z"></path>
</svg>
