<!-- Generated by IcoMoon.io -->
<svg version="1.1" xmlns="http://www.w3.org/2000/svg" width="32" height="32" viewBox="0 0 32 32">
<title>phone-icon</title>
<path d="M22 27.5c-9.65 0-17.5-7.85-17.5-17.5 0.003-3.299 2.461-6.023 5.644-6.445l0.033-0.004c0.054-0.007 0.116-0.011 0.179-0.011 0.615 0 1.144 0.37 1.376 0.9l0.004 0.010 2.511 5.86c0.077 0.174 0.122 0.377 0.122 0.591 0 0.306-0.092 0.59-0.249 0.827l0.003-0.006-2.079 3.177c-0.052 0.077-0.083 0.172-0.083 0.274 0 0.076 0.017 0.148 0.048 0.212l-0.001-0.003h0c1.009 2.027 2.617 3.629 4.591 4.602l0.059 0.026c0.061 0.029 0.132 0.046 0.207 0.046 0.103 0 0.199-0.032 0.279-0.086l-0.002 0.001 3.129-2.087c0.234-0.158 0.522-0.253 0.832-0.253 0.214 0 0.417 0.045 0.601 0.126l-0.010-0.004 5.855 2.509c0.539 0.236 0.91 0.765 0.91 1.38 0 0.063-0.004 0.125-0.011 0.186l0.001-0.007c-0.426 3.217-3.15 5.674-6.448 5.678h-0zM10.362 4.54c-0 0-0 0-0 0-0.021 0-0.041 0.001-0.062 0.004l0.002-0c-2.722 0.36-4.801 2.665-4.803 5.456v0c0 9.098 7.402 16.5 16.5 16.5 2.791-0.002 5.096-2.081 5.453-4.775l0.003-0.028c0.002-0.017 0.003-0.037 0.003-0.056 0-0.205-0.124-0.381-0.301-0.457l-0.003-0.001-5.854-2.509c-0.058-0.026-0.126-0.041-0.197-0.041-0.103 0-0.199 0.031-0.279 0.085l0.002-0.001-3.129 2.087c-0.234 0.158-0.522 0.253-0.832 0.253-0.233 0-0.454-0.053-0.65-0.148l0.009 0.004c-2.235-1.1-4.004-2.861-5.085-5.026l-0.029-0.064 0 0c-0.093-0.189-0.148-0.412-0.148-0.648 0-0.306 0.092-0.59 0.249-0.827l-0.003 0.005 2.079-3.177c0.051-0.077 0.082-0.172 0.082-0.274 0-0.071-0.015-0.139-0.042-0.2l0.001 0.003-2.511-5.859c-0.077-0.179-0.252-0.303-0.455-0.305h-0z"></path>
</svg>
