<!-- Generated by IcoMoon.io -->
<svg version="1.1" xmlns="http://www.w3.org/2000/svg" width="32" height="32" viewBox="0 0 32 32">
<title>search-icon</title>
<path d="M28.353 27.646l-5.733-5.733c1.786-1.951 2.88-4.561 2.88-7.426 0-6.082-4.931-11.013-11.013-11.013s-11.013 4.931-11.013 11.013c0 6.082 4.931 11.013 11.013 11.013 2.865 0 5.475-1.094 7.433-2.887l-0.008 0.008 5.733 5.733c0.090 0.090 0.215 0.146 0.353 0.146 0.276 0 0.5-0.224 0.5-0.5 0-0.138-0.056-0.263-0.146-0.353v0zM4.5 14.5c0-5.523 4.477-10 10-10s10 4.477 10 10c0 5.523-4.477 10-10 10v0c-5.52-0.006-9.994-4.48-10-9.999v-0.001z"></path>
</svg>
