<!-- Generated by IcoMoon.io -->
<svg version="1.1" xmlns="http://www.w3.org/2000/svg" width="32" height="32" viewBox="0 0 32 32">
<title>user_icon</title>
<path d="M28.559 26.749c-2.023-3.44-5.328-5.941-9.243-6.863l-0.099-0.020c3.125-1.303 5.282-4.333 5.282-7.867 0-4.694-3.806-8.5-8.5-8.5s-8.5 3.806-8.5 8.5c0 3.534 2.157 6.565 5.226 7.847l0.056 0.021c-4.013 0.942-7.318 3.443-9.304 6.815l-0.037 0.068c-0.042 0.072-0.067 0.158-0.067 0.251 0 0.276 0.224 0.5 0.5 0.5 0.184 0 0.345-0.099 0.432-0.248l0.001-0.002c2.379-4.063 6.723-6.749 11.694-6.749s9.315 2.686 11.659 6.686l0.035 0.064c0.088 0.15 0.249 0.249 0.433 0.249 0.276 0 0.5-0.224 0.5-0.5 0-0.092-0.025-0.178-0.068-0.252l0.001 0.002zM8.5 12c0-4.142 3.358-7.5 7.5-7.5s7.5 3.358 7.5 7.5c0 4.142-3.358 7.5-7.5 7.5v0c-4.14-0.005-7.495-3.36-7.5-7.5v-0z"></path>
</svg>
