<!-- Generated by IcoMoon.io -->
<svg version="1.1" xmlns="http://www.w3.org/2000/svg" width="32" height="32" viewBox="0 0 32 32">
<title>write-us-icon</title>
<path d="M28.581 4.346c-0.261-0.226-0.603-0.364-0.978-0.364-0.198 0-0.387 0.038-0.559 0.108l0.010-0.004-23.070 9.063c-0.562 0.225-0.951 0.765-0.951 1.396 0 0.724 0.513 1.329 1.196 1.469l0.010 0.002 6.262 1.252v7.729c-0 0.005-0 0.010-0 0.016 0 0.617 0.379 1.146 0.916 1.367l0.010 0.004c0.172 0.074 0.373 0.117 0.583 0.118h0c0.412-0.001 0.784-0.171 1.051-0.443l3.575-3.575 5.274 4.641c0.261 0.233 0.607 0.375 0.986 0.375h0c0.166-0 0.326-0.027 0.476-0.077l-0.011 0.003c0.503-0.163 0.882-0.573 1-1.082l0.002-0.010 4.702-20.517c0.024-0.101 0.038-0.217 0.038-0.336 0-0.453-0.201-0.859-0.52-1.134l-0.002-0.002zM4.034 14.59c-0.002-0.017-0.003-0.036-0.003-0.055 0-0.208 0.131-0.385 0.315-0.453l0.003-0.001 21.147-8.308-14.613 10.553-6.45-1.29c-0.219-0.039-0.386-0.221-0.4-0.445l-0-0.001zM12.354 25.352c-0.090 0.090-0.215 0.146-0.354 0.146-0.276 0-0.5-0.224-0.5-0.5v0-7.033l4.383 3.857zM28.089 5.594l-4.702 20.517c-0.053 0.224-0.251 0.388-0.487 0.388-0.127 0-0.243-0.047-0.331-0.125l0.001 0-10.769-9.477 16.208-11.706c0.059 0.079 0.095 0.178 0.095 0.286 0 0.041-0.005 0.082-0.015 0.12l0.001-0.003z"></path>
</svg>
