<!-- Generated by IcoMoon.io -->
<svg version="1.1" xmlns="http://www.w3.org/2000/svg" width="32" height="32" viewBox="0 0 32 32">
<title>mail-icon</title>
<path d="M26.625 7.322h-21.25c-0.82 0.001-1.485 0.666-1.486 1.486v14.458c0.001 0.8 0.649 1.449 1.449 1.451h21.325c0.801-0.001 1.45-0.65 1.451-1.451v-14.458c-0.001-0.821-0.667-1.486-1.488-1.486-0 0-0 0-0.001 0h0zM5.304 8.809c0-0.038 0.031-0.069 0.069-0.069v0h21.253c0.038 0 0.069 0.031 0.069 0.069v0 2.801c-0.001 0.029-0.019 0.053-0.045 0.062l-0 0-10.649 4.008-10.651-4.006c-0.026-0.010-0.044-0.034-0.045-0.062v-0zM26.663 23.301h-21.325c-0.019 0-0.034-0.015-0.034-0.034v0-10.095l10.519 3.951c0.010 0.003 0.023 0.006 0.036 0.008l0.002 0 0.021 0.004 0.040 0.005h0.019c0.019 0 0.038 0 0.057 0v0c0.019 0 0.039 0 0.058 0h0.019l0.040-0.005 0.021-0.004c0.016-0.003 0.029-0.006 0.041-0.009l0.017-0.004 0.042-0.014 0.011-0.004 10.447-3.929v10.095c0 0 0 0 0 0 0 0.018-0.014 0.033-0.032 0.034h-0z"></path>
</svg>
