<!-- Generated by IcoMoon.io -->
<svg version="1.1" xmlns="http://www.w3.org/2000/svg" width="32" height="32" viewBox="0 0 32 32">
<title>phone-icon</title>
<path d="M22 28c-9.925 0-18-8.075-18-18 0.004-3.553 2.65-6.486 6.079-6.941l0.036-0.004c0.072-0.009 0.155-0.014 0.24-0.014 0.821 0 1.526 0.493 1.836 1.199l0.005 0.013 2.511 5.86c0.103 0.232 0.162 0.503 0.162 0.788 0 0.408-0.122 0.787-0.332 1.102l0.005-0.007-2.080 3.178c0.957 1.917 2.479 3.432 4.345 4.356l0.056 0.025 3.13-2.087c0.311-0.211 0.695-0.337 1.109-0.337 0.285 0 0.556 0.060 0.801 0.168l-0.013-0.005 5.855 2.509c0.719 0.315 1.212 1.021 1.212 1.841 0 0.085-0.005 0.168-0.015 0.25l0.001-0.010c-0.458 3.465-3.392 6.111-6.944 6.115h-0zM10.358 5.041c-2.471 0.33-4.357 2.424-4.358 4.958v0c0.010 8.832 7.168 15.99 15.999 16h0.001c2.537-0.002 4.632-1.892 4.958-4.34l0.003-0.026-5.856-2.502-3.129 2.087c-0.312 0.211-0.696 0.337-1.11 0.337-0.312 0-0.607-0.072-0.87-0.199l0.012 0.005c-2.337-1.15-4.186-2.991-5.315-5.254l-0.030-0.067c-0.125-0.253-0.198-0.552-0.198-0.867 0-0.408 0.122-0.787 0.331-1.103l-0.005 0.007 2.079-3.177zM16.876 19.561v0z"></path>
</svg>
