<!-- Generated by IcoMoon.io -->
<svg version="1.1" xmlns="http://www.w3.org/2000/svg" width="32" height="32" viewBox="0 0 32 32">
<title>search-icon</title>
<path d="M26.625 26.244l-7.775-7.777c1.137-1.342 1.829-3.093 1.829-5.006 0-4.288-3.477-7.765-7.765-7.765s-7.765 3.477-7.765 7.765c0 4.288 3.477 7.765 7.765 7.765 1.877 0 3.598-0.666 4.941-1.774l-0.013 0.011 7.784 7.784c0.125 0.112 0.291 0.181 0.473 0.181 0.391 0 0.708-0.317 0.708-0.708 0-0.182-0.069-0.348-0.182-0.474l0.001 0.001zM12.902 19.806c-3.511-0.003-6.356-2.849-6.356-6.361 0-3.513 2.848-6.361 6.361-6.361s6.361 2.848 6.361 6.361c0 1.758-0.713 3.349-1.865 4.5l-0 0c-1.149 1.151-2.737 1.863-4.492 1.863-0.002 0-0.004 0-0.006 0h0z"></path>
</svg>
