<!-- Generated by IcoMoon.io -->
<svg version="1.1" xmlns="http://www.w3.org/2000/svg" width="32" height="32" viewBox="0 0 32 32">
<title>settings-icon</title>
<path d="M16.011 11.813c-2.306 0-4.175 1.869-4.175 4.175s1.869 4.175 4.175 4.175c2.306 0 4.175-1.869 4.175-4.175v0c-0.003-2.305-1.87-4.172-4.175-4.175h-0zM16.011 18.745c-0 0-0 0-0.001 0-1.523 0-2.758-1.235-2.758-2.758s1.235-2.758 2.758-2.758c1.523 0 2.758 1.235 2.758 2.758 0 0 0 0 0 0.001v-0c-0.003 1.521-1.236 2.753-2.757 2.755h-0z"></path>
<path d="M26.836 12.636h-1.242l-0.433-1.046 0.878-0.878c0.378-0.378 0.611-0.901 0.611-1.478s-0.234-1.099-0.611-1.478l-1.781-1.781c-0.378-0.378-0.901-0.612-1.478-0.612s-1.1 0.234-1.478 0.612l-0.879 0.879-1.045-0.433v-1.242c-0.001-1.154-0.936-2.089-2.090-2.090h-2.519c-1.154 0.001-2.089 0.936-2.090 2.090v1.242l-1.046 0.433-0.878-0.879c-0.378-0.378-0.901-0.612-1.478-0.612s-1.1 0.234-1.478 0.612v0l-1.781 1.781c-0.378 0.378-0.611 0.901-0.611 1.478s0.234 1.099 0.611 1.478l0.878 0.878-0.433 1.046h-1.242c-1.154 0.001-2.089 0.936-2.090 2.090v2.519c0.001 1.154 0.936 2.089 2.090 2.090h1.242l0.433 1.045-0.878 0.879c-0.378 0.378-0.611 0.901-0.611 1.478s0.234 1.099 0.611 1.478l1.781 1.781c0.378 0.378 0.901 0.612 1.478 0.612s1.1-0.234 1.478-0.612l0.878-0.878 1.046 0.433v1.242c0.001 1.154 0.936 2.089 2.090 2.090h2.519c1.154-0.001 2.089-0.936 2.090-2.090v-1.243l1.045-0.433 0.879 0.878c0.378 0.378 0.901 0.612 1.478 0.612s1.1-0.234 1.478-0.612l1.781-1.781c0.378-0.378 0.611-0.901 0.611-1.478s-0.234-1.099-0.611-1.478l-0.878-0.879 0.433-1.045h1.242c1.154-0.001 2.089-0.936 2.090-2.090v-2.519c-0.001-1.154-0.936-2.089-2.090-2.090h-0zM27.508 17.244c-0.001 0.371-0.301 0.672-0.672 0.672h-1.716c-0 0-0 0-0 0-0.294 0-0.545 0.178-0.653 0.433l-0.002 0.005-0.795 1.92c-0.034 0.080-0.054 0.174-0.054 0.272 0 0.196 0.079 0.373 0.207 0.501v0l1.214 1.213c0.121 0.122 0.196 0.29 0.196 0.476s-0.075 0.354-0.196 0.476l-1.781 1.781c-0.122 0.122-0.29 0.197-0.476 0.197s-0.354-0.075-0.476-0.197l-1.213-1.213c-0.128-0.129-0.306-0.208-0.502-0.208-0.098 0-0.191 0.020-0.275 0.055l0.005-0.002-1.92 0.795c-0.259 0.109-0.438 0.361-0.438 0.655 0 0 0 0 0 0v0 1.716c-0.001 0.371-0.301 0.672-0.672 0.672h-2.519c-0.371-0.001-0.672-0.301-0.672-0.672v-1.715c0-0 0-0 0-0 0-0.294-0.178-0.545-0.433-0.653l-0.005-0.002-1.921-0.796c-0.080-0.034-0.172-0.054-0.27-0.054-0 0-0.001 0-0.001 0h0c-0.195 0-0.372 0.079-0.5 0.207v0l-1.214 1.214c-0.122 0.122-0.29 0.197-0.475 0.197s-0.354-0.075-0.475-0.197v0l-1.781-1.781c-0.122-0.122-0.197-0.29-0.197-0.476s0.075-0.354 0.197-0.476v0l1.213-1.213c0.128-0.128 0.208-0.305 0.208-0.501 0-0.098-0.020-0.191-0.056-0.276l0.002 0.005-0.796-1.92c-0.109-0.259-0.361-0.438-0.654-0.438 0 0 0 0 0 0h-1.717c-0.371-0-0.672-0.301-0.673-0.672v-2.519c0-0.371 0.302-0.672 0.673-0.672h1.714c0.293-0 0.545-0.179 0.653-0.433l0.002-0.005 0.796-1.921c0.034-0.080 0.054-0.173 0.054-0.271 0-0.196-0.079-0.373-0.208-0.501v0l-1.213-1.214c-0.122-0.122-0.197-0.29-0.197-0.476s0.075-0.354 0.197-0.476v0l1.781-1.781c0.122-0.122 0.29-0.197 0.475-0.197s0.354 0.075 0.475 0.197l1.214 1.213c0.128 0.128 0.305 0.208 0.501 0.208 0.098 0 0.191-0.020 0.275-0.056l-0.005 0.002 1.921-0.796c0.259-0.109 0.438-0.361 0.438-0.654 0 0 0 0 0 0v0-1.716c0-0.371 0.301-0.672 0.672-0.673h2.519c0.371 0.001 0.672 0.302 0.672 0.673v1.716c0 0 0 0 0 0 0 0.293 0.178 0.545 0.433 0.653l0.005 0.002 1.92 0.796c0.080 0.034 0.173 0.054 0.271 0.054 0.196 0 0.373-0.079 0.501-0.208l1.213-1.213c0.122-0.122 0.29-0.197 0.476-0.197s0.354 0.075 0.476 0.197v0l1.781 1.781c0.121 0.122 0.196 0.29 0.196 0.476s-0.075 0.354-0.196 0.476l-1.214 1.214c-0.128 0.128-0.207 0.305-0.207 0.5 0 0.098 0.020 0.191 0.056 0.276l-0.002-0.005 0.795 1.921c0.11 0.259 0.361 0.437 0.655 0.438h1.716c0.371 0 0.672 0.301 0.672 0.672v0z"></path>
</svg>
