<!-- Generated by IcoMoon.io -->
<svg version="1.1" xmlns="http://www.w3.org/2000/svg" width="32" height="32" viewBox="0 0 32 32">
<title>shopping-cart-icon</title>
<path d="M27.133 18.358l1.636-9c0.020-0.108 0.032-0.231 0.032-0.358 0-1.105-0.895-2-2-2h-20.967l-0.61-3.358c-0.175-0.94-0.989-1.642-1.967-1.642-0 0-0.001 0-0.001 0h-2.256c-0.552 0-1 0.448-1 1s0.448 1 1 1v0h2.256l3.338 18.358c0.033 0.177 0.085 0.335 0.154 0.483l-0.005-0.012c-0.761 0.646-1.241 1.603-1.241 2.673 0 1.933 1.567 3.499 3.499 3.499s3.499-1.567 3.499-3.499c0-0.546-0.125-1.062-0.348-1.522l0.009 0.021h8.677c-0.213 0.439-0.338 0.955-0.338 1.5 0 1.933 1.567 3.5 3.5 3.5s3.5-1.567 3.5-3.5c0-1.933-1.567-3.5-3.5-3.5-0 0-0 0-0 0h-15.438l-0.364-2h16.967c0 0 0.001 0 0.001 0 0.978 0 1.792-0.702 1.965-1.63l0.002-0.012zM10.5 25.5c0 0.828-0.672 1.5-1.5 1.5s-1.5-0.672-1.5-1.5c0-0.828 0.672-1.5 1.5-1.5v0c0.828 0.001 1.499 0.672 1.5 1.5v0zM25.5 25.5c0 0.828-0.672 1.5-1.5 1.5s-1.5-0.672-1.5-1.5c0-0.828 0.672-1.5 1.5-1.5v0c0.828 0.001 1.499 0.672 1.5 1.5v0zM6.198 9h20.603l-1.636 9h-17.331z"></path>
</svg>
