<!-- Generated by IcoMoon.io -->
<svg version="1.1" xmlns="http://www.w3.org/2000/svg" width="32" height="32" viewBox="0 0 32 32">
<title>user-icon</title>
<path d="M16.006 16.625c3.444-0.003 6.234-2.795 6.234-6.239 0-3.446-2.793-6.239-6.239-6.239s-6.239 2.793-6.239 6.239c0 1.724 0.699 3.284 1.829 4.413l0 0c1.127 1.128 2.684 1.826 4.405 1.826 0.004 0 0.008 0 0.012 0h-0.001zM12.592 6.973c0.874-0.874 2.081-1.414 3.414-1.414 2.666 0 4.828 2.161 4.828 4.827s-2.161 4.828-4.828 4.828c-2.666 0-4.828-2.161-4.828-4.828 0-0 0-0 0-0v0c0-0.002 0-0.004 0-0.006 0-1.331 0.54-2.536 1.414-3.407l0-0z"></path>
<path d="M16.006 17.614c-5.287 0-9.589 4.301-9.589 9.589 0 0.391 0.317 0.709 0.709 0.709v0h17.761c0.391 0 0.709-0.317 0.709-0.709v0c0-5.288-4.302-9.589-9.589-9.589zM7.864 26.494c0.36-4.175 3.875-7.463 8.141-7.463s7.781 3.288 8.141 7.462z"></path>
</svg>
